<?xml version="1.0" standalone="no"?>
<!DOCTYPE svg PUBLIC "-//W3C//DTD SVG 20010904//EN"
 "http://www.w3.org/TR/2001/REC-SVG-20010904/DTD/svg10.dtd">
<svg version="1.0" xmlns="http://www.w3.org/2000/svg"
 width="512.000000pt" height="512.000000pt" viewBox="0 0 512.000000 512.000000"
 preserveAspectRatio="xMidYMid meet">

<g transform="translate(0.000000,512.000000) scale(0.100000,-0.100000)"
fill="#000000" stroke="none">
<path d="M3960 4765 c-107 -19 -267 -47 -355 -63 l-160 -28 -3 -597 -2 -597
22 5 c65 14 417 65 453 65 50 0 99 -29 132 -79 l23 -34 0 -530 c0 -500 -1
-529 -17 -522 -10 4 -58 13 -108 21 -145 23 -312 1 -447 -59 l-58 -26 0 -744
0 -744 58 -26 c95 -43 170 -59 300 -64 149 -7 266 17 390 77 98 47 149 83 230
163 124 121 207 279 237 452 23 131 22 2887 0 2984 -40 168 -162 302 -320 350
-110 34 -163 33 -375 -4z"/>
</g>
</svg>
